<svg xmlns="http://www.w3.org/2000/svg" viewBox="0 0 64 64" width="64" height="64" role="img" aria-label="health"><defs>
    <radialGradient id="fur_health" cx="40%" cy="30%" r="80%">
      <stop offset="0%" stop-color="#FFFFFF"></stop><stop offset="48%" stop-color="#F4EBFF"></stop>
      <stop offset="80%" stop-color="#E5D5F6"></stop><stop offset="100%" stop-color="#D2BBEF"></stop>
    </radialGradient>
    <radialGradient id="occ_health" cx="50%" cy="80%" r="70%">
      <stop offset="0%" stop-color="#A981D8" stop-opacity="0"></stop>
      <stop offset="72%" stop-color="#A981D8" stop-opacity="0"></stop>
      <stop offset="100%" stop-color="#9670C9" stop-opacity=".4"></stop>
    </radialGradient>
    <radialGradient id="gloss_health" cx="42%" cy="18%" r="60%">
      <stop offset="0%" stop-color="#FFFFFF" stop-opacity=".95"></stop>
      <stop offset="60%" stop-color="#FFFFFF" stop-opacity=".15"></stop>
      <stop offset="100%" stop-color="#FFFFFF" stop-opacity="0"></stop>
    </radialGradient>
    <radialGradient id="ear_health" cx="50%" cy="20%" r="90%">
      <stop offset="0%" stop-color="#FFE0EE"></stop><stop offset="50%" stop-color="#F7ABCD"></stop>
      <stop offset="100%" stop-color="#E879AC"></stop>
    </radialGradient>
    <radialGradient id="eye_health" cx="38%" cy="30%" r="80%">
      <stop offset="0%" stop-color="#46295F"></stop><stop offset="60%" stop-color="#291641"></stop>
      <stop offset="100%" stop-color="#150A26"></stop>
    </radialGradient>
    <radialGradient id="blush_health" cx="50%" cy="50%" r="50%">
      <stop offset="0%" stop-color="#FF9DBC" stop-opacity=".9"></stop>
      <stop offset="100%" stop-color="#FF9DBC" stop-opacity="0"></stop>
    </radialGradient>
    <radialGradient id="nose_health" cx="40%" cy="30%" r="80%">
      <stop offset="0%" stop-color="#FF9CBD"></stop><stop offset="60%" stop-color="#FF6F9C"></stop>
      <stop offset="100%" stop-color="#E84C82"></stop>
    </radialGradient>
    <linearGradient id="gold_health" x1="0" y1="0" x2="0" y2="1">
      <stop offset="0%" stop-color="#FFF1C4"></stop><stop offset="45%" stop-color="#FFD05C"></stop>
      <stop offset="100%" stop-color="#E0941A"></stop>
    </linearGradient>
    <radialGradient id="gem_health" cx="40%" cy="30%" r="80%">
      <stop offset="0%" stop-color="#FFC2DC"></stop><stop offset="55%" stop-color="#FF6FA5"></stop>
      <stop offset="100%" stop-color="#DC4684"></stop>
    </radialGradient>
    <linearGradient id="acc_health" x1="0" y1="0" x2="1" y2="1">
      <stop offset="0%" stop-color="#A24BF0"></stop><stop offset="100%" stop-color="#E0468C"></stop>
    </linearGradient>
    <linearGradient id="accHi_health" x1="0" y1="0" x2="0" y2="1">
      <stop offset="0%" stop-color="#FFFFFF" stop-opacity=".85"></stop>
      <stop offset="100%" stop-color="#FFFFFF" stop-opacity="0"></stop>
    </linearGradient>
    <radialGradient id="spark_health" cx="50%" cy="50%" r="50%">
      <stop offset="0%" stop-color="#FFFFFF"></stop><stop offset="100%" stop-color="#FFE6F4"></stop>
    </radialGradient>
    <radialGradient id="gemHi_health" cx="40%" cy="28%" r="80%">
      <stop offset="0%" stop-color="#FFD0E2"></stop><stop offset="45%" stop-color="#FF4D8D"></stop>
      <stop offset="100%" stop-color="#C9165C"></stop>
    </radialGradient>
    <radialGradient id="gemLo_health" cx="40%" cy="28%" r="80%">
      <stop offset="0%" stop-color="#F0E4FF"></stop><stop offset="50%" stop-color="#C9A8F0"></stop>
      <stop offset="100%" stop-color="#9E78CF"></stop>
    </radialGradient>
    <filter id="sh_health" x="-40%" y="-40%" width="180%" height="180%">
      <feDropShadow dx="0" dy="1.4" stdDeviation="1.4" flood-color="#3a1d5e" flood-opacity=".30"></feDropShadow>
    </filter>
    <filter id="glw_health" x="-80%" y="-80%" width="260%" height="260%">
      <feGaussianBlur stdDeviation="2.6"></feGaussianBlur>
    </filter>
  </defs><g transform="translate(25.5,23) rotate(-8)"><g>
    <path d="M0,1 C-5,-1 -7.5,-9 -6.4,-16.5 C-5.4,-22 -2.2,-25 0,-25 C2.2,-25 5.4,-22 6.4,-16.5 C7.5,-9 5,-1 0,1 Z" fill="url(#fur_health)" stroke="#3D2257" stroke-width=".7" stroke-opacity=".45"></path>
    <path d="M0,-3 C-3,-5 -5,-10 -4,-15.5 C-3.2,-19.5 -1.2,-22 0,-22 C1.2,-22 3.2,-19.5 4,-15.5 C5,-10 3,-5 0,-3 Z" fill="url(#ear_health)"></path>
    <path d="M-1,-8 C-3,-13 -2.4,-18 -0.6,-21.5" stroke="#FFFFFF" stroke-width="1.2" fill="none" stroke-linecap="round" opacity=".5"></path>
  </g></g>
          <g transform="translate(38.5,23) rotate(30)"><g>
    <path d="M0,1 C-5,-1 -7.5,-9 -6.4,-16.5 C-5.4,-22 -2.2,-25 0,-25 C2.2,-25 5.4,-22 6.4,-16.5 C7.5,-9 5,-1 0,1 Z" fill="url(#fur_health)" stroke="#3D2257" stroke-width=".7" stroke-opacity=".45"></path>
    <path d="M0,-3 C-3,-5 -5,-10 -4,-15.5 C-3.2,-19.5 -1.2,-22 0,-22 C1.2,-22 3.2,-19.5 4,-15.5 C5,-10 3,-5 0,-3 Z" fill="url(#ear_health)"></path>
    <path d="M-1,-8 C-3,-13 -2.4,-18 -0.6,-21.5" stroke="#FFFFFF" stroke-width="1.2" fill="none" stroke-linecap="round" opacity=".5"></path>
  </g></g><g filter="url(#sh_health)">
    <path d="M32,19 C20.5,18 13.5,26 13.5,36 C13.5,46 22,53.5 32,53.5 C42,53.5 50.5,46 50.5,36 C50.5,26 43.5,18 32,19 Z" fill="url(#fur_health)" stroke="#3D2257" stroke-width=".8" stroke-opacity=".5"></path>
    <path d="M32,19 C20.5,18 13.5,26 13.5,36 C13.5,46 22,53.5 32,53.5 C42,53.5 50.5,46 50.5,36 C50.5,26 43.5,18 32,19 Z" fill="url(#occ_health)"></path>
    <path d="M32,21 C23.5,21 17.5,26 16.5,32 C23.5,27 40.5,27 47.5,32 C46.5,26 40.5,21 32,21 Z" fill="url(#gloss_health)"></path>
    <path d="M48,32 C51,38 49.5,46 44,50.5" stroke="#FF93C6" stroke-width="1.4" fill="none" stroke-linecap="round" opacity=".55"></path>
  </g><ellipse cx="22.5" cy="41.5" rx="3.2" ry="1.9" fill="url(#blush_health)"></ellipse><ellipse cx="41.5" cy="41.5" rx="3.2" ry="1.9" fill="url(#blush_health)"></ellipse><ellipse cx="26" cy="35.5" rx="3.7" ry="4.7" fill="url(#eye_health)"></ellipse><circle cx="24.742" cy="33.808" r="1.554" fill="#fff"></circle><circle cx="27.332" cy="36.91" r="0.7400000000000001" fill="#fff" opacity=".8"></circle><ellipse cx="38" cy="35.5" rx="3.7" ry="4.7" fill="url(#eye_health)"></ellipse><circle cx="36.742" cy="33.808" r="1.554" fill="#fff"></circle><circle cx="39.332" cy="36.91" r="0.7400000000000001" fill="#fff" opacity=".8"></circle><path d="M undefined,43.9 C NaN,42.1 NaN,41.5 NaN,39.9 C NaN,38.1 NaN,37.8 undefined,39.8 C NaN,37.8 NaN,38.1 NaN,39.9 C NaN,41.5 NaN,42.1 undefined,43.9 Z" fill="url(#nose_health)"></path><path d="M 29.4,45 Q 32,47.4 34.6,45" stroke="#3D2257" stroke-width="1.4" fill="none" stroke-linecap="round"></path><g filter="url(#sh_health)" transform="translate(45,46) scale(1)">
  <path d="M0,5.2 C-3.4,1.6 -7,0 -7,-3.4 C-7,-6.6 -3.2,-7.2 0,-3.6 C3.2,-7.2 7,-6.6 7,-3.4 C7,0 3.4,1.6 0,5.2 Z" fill="url(#gem_health)" stroke="#D8417A" stroke-width=".7"></path>
  <circle cx="-2.4" cy="-3" r="1.4" fill="#fff" opacity=".85"></circle></g></svg>