<svg xmlns="http://www.w3.org/2000/svg" viewBox="0 0 64 64" width="64" height="64" role="img" aria-label="tab-vision"><defs>
    <radialGradient id="fur_tabvision" cx="40%" cy="30%" r="80%">
      <stop offset="0%" stop-color="#FFFFFF"></stop><stop offset="48%" stop-color="#F4EBFF"></stop>
      <stop offset="80%" stop-color="#E5D5F6"></stop><stop offset="100%" stop-color="#D2BBEF"></stop>
    </radialGradient>
    <radialGradient id="occ_tabvision" cx="50%" cy="80%" r="70%">
      <stop offset="0%" stop-color="#A981D8" stop-opacity="0"></stop>
      <stop offset="72%" stop-color="#A981D8" stop-opacity="0"></stop>
      <stop offset="100%" stop-color="#9670C9" stop-opacity=".4"></stop>
    </radialGradient>
    <radialGradient id="gloss_tabvision" cx="42%" cy="18%" r="60%">
      <stop offset="0%" stop-color="#FFFFFF" stop-opacity=".95"></stop>
      <stop offset="60%" stop-color="#FFFFFF" stop-opacity=".15"></stop>
      <stop offset="100%" stop-color="#FFFFFF" stop-opacity="0"></stop>
    </radialGradient>
    <radialGradient id="ear_tabvision" cx="50%" cy="20%" r="90%">
      <stop offset="0%" stop-color="#FFE0EE"></stop><stop offset="50%" stop-color="#F7ABCD"></stop>
      <stop offset="100%" stop-color="#E879AC"></stop>
    </radialGradient>
    <radialGradient id="eye_tabvision" cx="38%" cy="30%" r="80%">
      <stop offset="0%" stop-color="#46295F"></stop><stop offset="60%" stop-color="#291641"></stop>
      <stop offset="100%" stop-color="#150A26"></stop>
    </radialGradient>
    <radialGradient id="blush_tabvision" cx="50%" cy="50%" r="50%">
      <stop offset="0%" stop-color="#FF9DBC" stop-opacity=".9"></stop>
      <stop offset="100%" stop-color="#FF9DBC" stop-opacity="0"></stop>
    </radialGradient>
    <radialGradient id="nose_tabvision" cx="40%" cy="30%" r="80%">
      <stop offset="0%" stop-color="#FF9CBD"></stop><stop offset="60%" stop-color="#FF6F9C"></stop>
      <stop offset="100%" stop-color="#E84C82"></stop>
    </radialGradient>
    <linearGradient id="gold_tabvision" x1="0" y1="0" x2="0" y2="1">
      <stop offset="0%" stop-color="#FFF1C4"></stop><stop offset="45%" stop-color="#FFD05C"></stop>
      <stop offset="100%" stop-color="#E0941A"></stop>
    </linearGradient>
    <radialGradient id="gem_tabvision" cx="40%" cy="30%" r="80%">
      <stop offset="0%" stop-color="#FFC2DC"></stop><stop offset="55%" stop-color="#FF6FA5"></stop>
      <stop offset="100%" stop-color="#DC4684"></stop>
    </radialGradient>
    <linearGradient id="acc_tabvision" x1="0" y1="0" x2="1" y2="1">
      <stop offset="0%" stop-color="#A24BF0"></stop><stop offset="100%" stop-color="#E0468C"></stop>
    </linearGradient>
    <linearGradient id="accHi_tabvision" x1="0" y1="0" x2="0" y2="1">
      <stop offset="0%" stop-color="#FFFFFF" stop-opacity=".85"></stop>
      <stop offset="100%" stop-color="#FFFFFF" stop-opacity="0"></stop>
    </linearGradient>
    <radialGradient id="spark_tabvision" cx="50%" cy="50%" r="50%">
      <stop offset="0%" stop-color="#FFFFFF"></stop><stop offset="100%" stop-color="#FFE6F4"></stop>
    </radialGradient>
    <radialGradient id="gemHi_tabvision" cx="40%" cy="28%" r="80%">
      <stop offset="0%" stop-color="#FFD0E2"></stop><stop offset="45%" stop-color="#FF4D8D"></stop>
      <stop offset="100%" stop-color="#C9165C"></stop>
    </radialGradient>
    <radialGradient id="gemLo_tabvision" cx="40%" cy="28%" r="80%">
      <stop offset="0%" stop-color="#F0E4FF"></stop><stop offset="50%" stop-color="#C9A8F0"></stop>
      <stop offset="100%" stop-color="#9E78CF"></stop>
    </radialGradient>
    <filter id="sh_tabvision" x="-40%" y="-40%" width="180%" height="180%">
      <feDropShadow dx="0" dy="1.4" stdDeviation="1.4" flood-color="#3a1d5e" flood-opacity=".30"></feDropShadow>
    </filter>
    <filter id="glw_tabvision" x="-80%" y="-80%" width="260%" height="260%">
      <feGaussianBlur stdDeviation="2.6"></feGaussianBlur>
    </filter>
  </defs><g transform="translate(32,35) scale(0.92)">
    <path d="M -30,12 Q -33,-2 -22,-14 Q -16,-2 -9,-12 Q -2,-26 0,-26 Q 2,-26 9,-12 Q 16,-2 22,-14 Q 33,-2 30,12 Z" fill="url(#gold_tabvision)" stroke="#C97E12" stroke-width="2" stroke-linejoin="round"></path>
    <circle cx="-22" cy="-15" r="3.6" fill="url(#gem_tabvision)"></circle>
    <circle cx="22" cy="-15" r="3.6" fill="url(#gem_tabvision)"></circle>
    <circle cx="0" cy="-24" r="5" fill="url(#gem_tabvision)"></circle>
    <path d="M -20,-2 Q 0,5 20,-2" stroke="#FFF6D8" stroke-width="2.4" fill="none" stroke-linecap="round" opacity=".7"></path>
  </g><path d="M 15,18.6 Q 15.528,20.472 17.4,21 Q 15.528,21.528 15,23.4 Q 14.472,21.528 12.6,21 Q 14.472,20.472 15,18.6 Z" fill="url(#spark_tabvision)" opacity="0.9"></path><path d="M 50,21 Q 50.44,22.56 52,23 Q 50.44,23.44 50,25 Q 49.56,23.44 48,23 Q 49.56,22.56 50,21 Z" fill="url(#spark_tabvision)" opacity="0.85"></path></svg>